<?xml version="1.0" encoding="UTF-8"?>
<svg id="elements" xmlns="http://www.w3.org/2000/svg" version="1.1" viewBox="0 0 68 68">
  <!-- Generator: Adobe Illustrator 29.5.1, SVG Export Plug-In . SVG Version: 2.1.0 Build 141)  -->
  <path d="M48.614,16.256c-1.787,0-3.236,1.449-3.236,3.236s1.449,3.236,3.236,3.236,3.236-1.449,3.236-3.236-1.449-3.236-3.236-3.236Z" fill="#fff"/>
  <path d="M34.227,20.406c-7.496,0-13.594,6.098-13.594,13.594s6.098,13.594,13.594,13.594,13.594-6.098,13.594-13.594-6.098-13.594-13.594-13.594ZM34.227,42.708c-4.802,0-8.708-3.906-8.708-8.708s3.906-8.708,8.708-8.708,8.707,3.906,8.707,8.708-3.906,8.708-8.707,8.708Z" fill="#fff"/>
  <path d="M45.019,61.6h-22.038c-9.142,0-16.58-7.438-16.58-16.58v-22.039c0-9.143,7.438-16.58,16.58-16.58h22.038c9.142,0,16.581,7.437,16.581,16.58v22.039c0,9.142-7.439,16.58-16.581,16.58ZM22.98,11.593c-6.279,0-11.387,5.108-11.387,11.387v22.039c0,6.279,5.108,11.387,11.387,11.387h22.038c6.279,0,11.388-5.108,11.388-11.387v-22.039c0-6.279-5.109-11.387-11.388-11.387h-22.038Z" fill="#fff"/>
</svg>