<?xml version="1.0" encoding="UTF-8"?>
<svg id="elements" xmlns="http://www.w3.org/2000/svg" version="1.1" viewBox="0 0 68 68">
  <!-- Generator: Adobe Illustrator 29.5.1, SVG Export Plug-In . SVG Version: 2.1.0 Build 141)  -->
  <path d="M60.999,16.965c-1.729.782-3.641,1.257-5.506,1.57.886-.149,2.186-1.752,2.707-2.4.797-.989,1.456-2.116,1.828-3.333.048-.095.083-.214-.012-.286-.12-.047-.197-.023-.292.025-2.083,1.116-4.237,1.925-6.529,2.498-.19.047-.33,0-.45-.119-.19-.214-.369-.416-.571-.583-.963-.82-1.997-1.463-3.163-1.938-1.53-.624-3.202-.888-4.85-.781-1.604.104-3.178.556-4.602,1.3-1.426.745-2.699,1.782-3.712,3.032-1.048,1.294-1.821,2.821-2.217,4.44-.382,1.562-.351,3.108-.118,4.688.035.262.012.297-.225.262-8.966-1.334-16.399-4.543-22.432-11.418-.262-.298-.404-.298-.618.023-2.64,3.957-1.36,10.315,1.939,13.44.44.416.892.833,1.379,1.213-.178.037-2.373-.201-4.329-1.213-.262-.166-.393-.071-.416.226-.024.428.012.821.071,1.285.507,4.011,3.285,7.722,7.089,9.17.452.19.951.357,1.438.44-.867.19-1.759.326-4.246.131-.309-.059-.427.095-.309.392,1.868,5.092,5.9,6.607,8.92,7.47.404.071.809.071,1.214.166-.025.037-.049.037-.072.072-1.002,1.527-4.474,2.664-6.092,3.229-2.941,1.028-6.144,1.49-9.252,1.184-.497-.073-.602-.068-.737,0-.137.084-.018.203.142.332.631.417,1.273.786,1.927,1.142,1.974,1.046,4.033,1.879,6.184,2.474,11.114,3.069,23.634.814,31.979-7.477,6.554-6.511,8.85-15.491,8.85-24.482,0-.352.416-.546.663-.732,1.705-1.281,3.08-2.814,4.352-4.526.286-.384.289-.727.289-.867v-.047c0-.144-.003-.101-.224,0Z" fill="#fff"/>
</svg>